<mxfile host="app.diagrams.net" modified="2021-10-25T07:56:58.054Z" agent="5.0 (Windows NT 10.0; Win64; x64) AppleWebKit/537.36 (KHTML, like Gecko) Chrome/94.0.4606.81 Safari/537.36" etag="ZwaS4a6OjbLGfFmHaJFT" version="15.5.9" type="github">
  <diagram id="vCKd5LtElZz2iV3N1r_q" name="Page-1">
    <mxGraphModel dx="1422" dy="772" grid="1" gridSize="10" guides="1" tooltips="1" connect="1" arrows="1" fold="1" page="1" pageScale="1" pageWidth="850" pageHeight="1100" math="0" shadow="0">
      <root>
        <mxCell id="0" />
        <mxCell id="1" parent="0" />
        <mxCell id="0a_gKhbcCxjh-burNr6X-2" value="ReportForm" style="rounded=0;whiteSpace=wrap;html=1;" vertex="1" parent="1">
          <mxGeometry x="361" y="270" width="120" height="60" as="geometry" />
        </mxCell>
        <mxCell id="0a_gKhbcCxjh-burNr6X-3" value="Controller" style="rounded=0;whiteSpace=wrap;html=1;" vertex="1" parent="1">
          <mxGeometry x="360" y="150" width="120" height="60" as="geometry" />
        </mxCell>
        <mxCell id="0a_gKhbcCxjh-burNr6X-4" value="DataAnalysis" style="rounded=0;whiteSpace=wrap;html=1;" vertex="1" parent="1">
          <mxGeometry x="120" y="150" width="120" height="60" as="geometry" />
        </mxCell>
        <mxCell id="0a_gKhbcCxjh-burNr6X-5" value="ConfirmedCasesRecord" style="rounded=0;whiteSpace=wrap;html=1;" vertex="1" parent="1">
          <mxGeometry x="200" y="350" width="120" height="60" as="geometry" />
        </mxCell>
        <mxCell id="0a_gKhbcCxjh-burNr6X-6" value="MyApplication" style="rounded=0;whiteSpace=wrap;html=1;" vertex="1" parent="1">
          <mxGeometry x="360" y="60" width="120" height="60" as="geometry" />
        </mxCell>
        <mxCell id="0a_gKhbcCxjh-burNr6X-7" value="GraphForm" style="rounded=0;whiteSpace=wrap;html=1;" vertex="1" parent="1">
          <mxGeometry x="360" y="470" width="120" height="60" as="geometry" />
        </mxCell>
        <mxCell id="0a_gKhbcCxjh-burNr6X-8" value="ConfirmedDeathRecord&lt;br&gt;" style="rounded=0;whiteSpace=wrap;html=1;" vertex="1" parent="1">
          <mxGeometry x="361" y="350" width="120" height="60" as="geometry" />
        </mxCell>
        <mxCell id="0a_gKhbcCxjh-burNr6X-9" value="VaccinationRateRecord" style="rounded=0;whiteSpace=wrap;html=1;" vertex="1" parent="1">
          <mxGeometry x="520" y="350" width="120" height="60" as="geometry" />
        </mxCell>
        <mxCell id="0a_gKhbcCxjh-burNr6X-10" value="" style="rounded=0;whiteSpace=wrap;html=1;" vertex="1" parent="1">
          <mxGeometry x="200" y="550" width="120" height="60" as="geometry" />
        </mxCell>
        <mxCell id="0a_gKhbcCxjh-burNr6X-11" value="" style="rounded=0;whiteSpace=wrap;html=1;" vertex="1" parent="1">
          <mxGeometry x="360" y="550" width="120" height="60" as="geometry" />
        </mxCell>
        <mxCell id="0a_gKhbcCxjh-burNr6X-12" value="" style="rounded=0;whiteSpace=wrap;html=1;" vertex="1" parent="1">
          <mxGeometry x="520" y="550" width="120" height="60" as="geometry" />
        </mxCell>
        <mxCell id="0a_gKhbcCxjh-burNr6X-13" value="DataUtils" style="rounded=0;whiteSpace=wrap;html=1;" vertex="1" parent="1">
          <mxGeometry x="600" y="150" width="120" height="60" as="geometry" />
        </mxCell>
      </root>
    </mxGraphModel>
  </diagram>
</mxfile>
